<svg xmlns="http://www.w3.org/2000/svg" viewBox="0 0 84.42 84.42"><defs><style>.cls-1,.cls-2{fill:none;stroke:#000;stroke-miterlimit:10;stroke-width:2.35px;}.cls-1{stroke-linecap:round;}</style></defs><g id="Layer_2" data-name="Layer 2"><g id="Layer_1-2" data-name="Layer 1"><path class="cls-1" d="M77.32,21a41.07,41.07,0,1,1-5-6.64"/><path class="cls-1" d="M17.59,42.21a24.55,24.55,0,0,1,1.66-8.89"/><path class="cls-1" d="M59.41,59.83a24.73,24.73,0,0,1-22.09,6.52"/><path class="cls-1" d="M30.08,20.79a24.62,24.62,0,0,1,27.36,2.07"/><path class="cls-2" d="M41.21,41.28c-9.32-3.61,1.12-18.52,16.23-18.11,9,.24,16.25,8.09,16.26,18.08S65.35,60.76,57.47,59.36C40.44,56.34,49.5,44.49,41.21,41.28Z"/><circle class="cls-2" cx="57.57" cy="39.59" r="8.08"/><circle class="cls-2" cx="27.64" cy="29.94" r="8.99"/><line class="cls-1" x1="24.34" y1="27.35" x2="30.93" y2="32.54"/><line class="cls-1" x1="30.93" y1="27.35" x2="24.34" y2="32.54"/><circle class="cls-2" cx="29.57" cy="54.52" r="14.13"/><circle cx="22.46" cy="51.35" r="1.38"/><circle cx="36.62" cy="51.35" r="1.38"/><circle cx="28.94" cy="54.47" r="1.38"/><circle cx="24.89" cy="60.23" r="1.38"/><circle cx="35.59" cy="60.88" r="1.38"/><circle cx="29.59" cy="46.45" r="1.38"/></g></g></svg>