<svg xmlns="http://www.w3.org/2000/svg" id="Layer_1" data-name="Layer 1" viewBox="0 0 269 496"><path d="M411,531.93H156a7,7,0,0,1-7-7V474.47a7,7,0,0,1,14,0v43.46H404v-468H163V423.36a7,7,0,0,1-14,0V42.93a7,7,0,0,1,7-7H411a7,7,0,0,1,7,7v482A7,7,0,0,1,411,531.93Z" transform="translate(-149 -35.93)"/><path d="M271,80.93H178a7,7,0,0,1,0-14h93a7,7,0,0,1,0,14Z" transform="translate(-149 -35.93)"/><path d="M306.75,80.93h-1.93a7,7,0,0,1,0-14h1.93a7,7,0,0,1,0,14Z" transform="translate(-149 -35.93)"/><path d="M381,499.79H185.57a7,7,0,0,1-7-7v-387a7,7,0,0,1,7.28-7c.91,0,22.51,1,36.81,12.19,9.49,7.41,29.79,10.15,43.44,5.88a7,7,0,1,1,4.18,13.36c-18,5.63-43.22,1.95-56.23-8.2-6.37-5-15.27-7.3-21.48-8.36V485.79H374V132.28c-15.13-1-29.65-10-30.37-10.49l-.41-.29c-10.53-7.71-29.26-8.06-43.15-5a7,7,0,1,1-3-13.67c16.4-3.63,39.21-3.64,54.22,7.19,4.72,2.9,18.51,9.68,28.67,8.11a7,7,0,0,1,8.07,6.92V492.79A7,7,0,0,1,381,499.79Z" transform="translate(-149 -35.93)"/><path d="M353.84,282H306.75a7,7,0,0,1-7-7V227.93a7,7,0,0,1,7-7h47.09a7,7,0,0,1,7,7V275A7,7,0,0,1,353.84,282Zm-40.09-14h33.09V234.93H313.75Z" transform="translate(-149 -35.93)"/><path d="M322.74,201.5a31.19,31.19,0,1,1,31.19-31.19A31.22,31.22,0,0,1,322.74,201.5Zm0-48.37a17.19,17.19,0,1,0,17.19,17.18A17.21,17.21,0,0,0,322.74,153.13Z" transform="translate(-149 -35.93)"/><path d="M235.15,419.43a23,23,0,1,1,23-23A23,23,0,0,1,235.15,419.43Zm0-32a9,9,0,1,0,9,9A9,9,0,0,0,235.15,387.45Z" transform="translate(-149 -35.93)"/><path d="M339.13,459.61a23.8,23.8,0,1,1,23.8-23.8A23.82,23.82,0,0,1,339.13,459.61Zm0-33.59a9.8,9.8,0,1,0,9.8,9.79A9.8,9.8,0,0,0,339.13,426Z" transform="translate(-149 -35.93)"/><path d="M233.93,351a7,7,0,0,1-5.14-2.25L206.86,325a7,7,0,0,1,.4-9.9L231,293.18a7,7,0,0,1,9.89.39l21.92,23.74a7,7,0,0,1-.39,9.9l-23.74,21.92A7,7,0,0,1,233.93,351Zm-12-30.35,12.42,13.46,13.46-12.43-12.43-13.46Z" transform="translate(-149 -35.93)"/><path d="M267.62,473.15a7,7,0,0,1-4.95-2l-22.85-22.85a7,7,0,0,1,0-9.9l22.85-22.85a7,7,0,0,1,9.9,0l22.85,22.85a7,7,0,0,1,0,9.9L272.57,471.1A7,7,0,0,1,267.62,473.15Zm-13-29.85,13,12.95,13-12.95-13-12.95Z" transform="translate(-149 -35.93)"/><path d="M249.52,266.93h-.66c-9.92-.2-18.93-4.85-26.77-13.81-.05-.06-.11-.12-.16-.19-12.35-15.15-14.58-33.69-6.43-53.6,6.45-15.78,18.07-29,24.42-35.54a14.54,14.54,0,0,1,20.44-.25h0c27.41,26.48,31.4,49.16,29.92,63.52-1.66,16.21-10.51,25.83-10.88,26.23C278.83,253.88,266.24,266.93,249.52,266.93Zm-16.81-23c5.16,5.88,10.52,8.8,16.37,8.94,10.41.26,19.37-8.48,20.1-9.21,1.56-1.76,24.16-28.86-18.54-70.11h0a.48.48,0,0,0-.7,0C237.71,186.07,211.6,217.94,232.71,244Zm41.58,4.52h0Z" transform="translate(-149 -35.93)"/><path d="M250.61,290.46a7,7,0,0,1-7-7v-61a7,7,0,0,1,14,0v61A7,7,0,0,1,250.61,290.46Z" transform="translate(-149 -35.93)"/><path d="M304,395.16c-6.37,0-14.37-1.18-21.46-5.76-8.34-5.38-13.56-14.07-15.53-25.81a2,2,0,0,1,0-.24c-6.12-46.47,47-62.84,63.48-66.75a13.28,13.28,0,0,1,15.81,9.48h0c9.92,37.53,1.48,59.26-7.34,70.88-10,13.13-22.69,16.72-23.23,16.87A49.57,49.57,0,0,1,304,395.16ZM280.79,361.4c1.31,7.71,4.33,13,9.23,16.2,8.74,5.69,21,3,22,2.71,2.27-.68,35.91-11.93,20.9-69.9C315.14,314.73,276.49,328.08,280.79,361.4Z" transform="translate(-149 -35.93)"/><path d="M275.28,411.4a6.91,6.91,0,0,1-3.66-1,7,7,0,0,1-2.29-9.63l32-51.91a7,7,0,1,1,11.91,7.35l-32,51.91A7,7,0,0,1,275.28,411.4Z" transform="translate(-149 -35.93)"/></svg>