<svg xmlns="http://www.w3.org/2000/svg" viewBox="0 0 84.87 61.03"><defs><style>.cls-1,.cls-2,.cls-3{fill:none;}.cls-2,.cls-3{stroke:#000;stroke-miterlimit:10;stroke-width:2.5px;}.cls-2{stroke-linecap:round;}</style></defs><g id="Layer_2" data-name="Layer 2"><g id="Layer_1-2" data-name="Layer 1"><path class="cls-1" d="M51.15,24.67H41a10.17,10.17,0,1,1,20.34,0Z"/><path class="cls-2" d="M3.73,38.62A22.69,22.69,0,0,1,1.25,28.26h0a3.59,3.59,0,0,1,3.59-3.59H80a3.59,3.59,0,0,1,3.6,3.59h0A22.87,22.87,0,0,1,60.75,51.13H24.12a22.79,22.79,0,0,1-15-5.62"/><path class="cls-2" d="M50.76,14.06a10,10,0,0,1-.35-2.64A10.17,10.17,0,0,1,69,5.73"/><path class="cls-2" d="M43.41,18.1a10.13,10.13,0,0,1,16.3,1.11"/><path class="cls-2" d="M52.89,59.78H28a8.66,8.66,0,0,1-8.65-8.65H67a8.66,8.66,0,0,1-5.16,7.92"/><path class="cls-3" d="M31.66,5.85,20,24.67H47.2L34.9,5.81A1.92,1.92,0,0,0,31.66,5.85Z"/><path d="M33.33,12.75a1.37,1.37,0,0,0,1.36-1.36,1.36,1.36,0,1,0-1.36,1.36Z"/><path d="M36.29,17.58a1.37,1.37,0,0,0,1.36-1.36,1.36,1.36,0,1,0-1.36,1.36Z"/><path d="M39.49,22.8a1.37,1.37,0,1,0-1.37-1.36,1.38,1.38,0,0,0,1.37,1.36Z"/><path d="M32.86,22.72a1.36,1.36,0,1,0-1.36-1.36,1.38,1.38,0,0,0,1.36,1.36Z"/><path d="M28.89,19.53a1.37,1.37,0,1,0-1.37-1.37,1.4,1.4,0,0,0,1.37,1.37Z"/><path class="cls-3" d="M6.66,18.47,8,24.67H20l5.24-8.45L9.11,12.34A2.58,2.58,0,0,0,6,15.4l.67,3.07"/><path d="M12.06,19a1.37,1.37,0,1,0-1.37-1.36A1.38,1.38,0,0,0,12.06,19Z"/><path d="M17.39,22a1.38,1.38,0,0,0,1.37-1.36,1.4,1.4,0,0,0-1.37-1.37,1.37,1.37,0,0,0,0,2.73Z"/><path class="cls-3" d="M69.06,24.67H58.89a10.17,10.17,0,0,1,20.34,0Z"/><path class="cls-3" d="M11.79,13l4.35-7.34c0-.06.07-.12.11-.17A3.66,3.66,0,0,1,21.87,5l6.36,6.39-3,4.83Z"/><path d="M18.17,10.59a.46.46,0,0,0,0-.91.46.46,0,0,0,0,.91Z"/><path d="M18.52,11.15a1.38,1.38,0,0,0,1.37-1.36,1.4,1.4,0,0,0-1.37-1.37,1.37,1.37,0,0,0,0,2.73Z"/><path d="M24.08,15a1.37,1.37,0,1,0-1.37-1.36A1.38,1.38,0,0,0,24.08,15Z"/></g></g></svg>