<svg xmlns="http://www.w3.org/2000/svg" id="Layer_1" data-name="Layer 1" viewBox="0 0 440 436.93"><defs><style>.cls-1{fill:none;}</style></defs><path class="cls-1" d="M486,207V480H427V260.5A29.5,29.5,0,0,0,397.5,231H60V182H461A25,25,0,0,1,486,207Z" transform="translate(-53 -50.07)"/><path class="cls-1" d="M486,453.43V480H427V260.5A29.5,29.5,0,0,0,397.5,231H60V202.21A20.21,20.21,0,0,1,80.21,182H461a25,25,0,0,1,25,25V397.29" transform="translate(-53 -50.07)"/><path d="M486,404.29a7,7,0,0,1-7-7V207a18,18,0,0,0-18-18H80.21A13.23,13.23,0,0,0,67,202.21V224h60.07a7,7,0,0,1,0,14H60a7,7,0,0,1-7-7V202.21A27.25,27.25,0,0,1,80.21,175H461a32,32,0,0,1,32,32V397.29A7,7,0,0,1,486,404.29Z" transform="translate(-53 -50.07)"/><path d="M486,487H427a7,7,0,0,1-7-7V260.5A22.52,22.52,0,0,0,397.5,238H356.89a7,7,0,0,1,0-14H397.5A36.54,36.54,0,0,1,434,260.5V473h45V453.43a7,7,0,0,1,14,0V480A7,7,0,0,1,486,487Z" transform="translate(-53 -50.07)"/><path d="M427,301H60a7,7,0,0,1-7-7V231a7,7,0,0,1,7-7h67.07a7,7,0,0,1,0,14H67v49H420V255a17,17,0,0,0-17-17H356.89a7,7,0,0,1,0-14H403a31,31,0,0,1,31,31v39A7,7,0,0,1,427,301Z" transform="translate(-53 -50.07)"/><path d="M427,441.14H60a7,7,0,0,1-7-7V367.71a7,7,0,0,1,7-7h99.43a7,7,0,0,1,0,14H67v52.43H420V374.71H213a7,7,0,0,1,0-14H427a7,7,0,0,1,7,7v66.43A7,7,0,0,1,427,441.14Z" transform="translate(-53 -50.07)"/><path d="M283.14,238h-87a7,7,0,0,1,0-14h87a7,7,0,0,1,0,14Z" transform="translate(-53 -50.07)"/><path d="M427,374.71H211.5a7,7,0,0,1,0-14H420V301H67v59.71h95.21a7,7,0,0,1,0,14H60a7,7,0,0,1-7-7V294a7,7,0,0,1,7-7H427a7,7,0,0,1,7,7v73.71A7,7,0,0,1,427,374.71Z" transform="translate(-53 -50.07)"/><path d="M427,487H60a7,7,0,0,1-7-7V434.14a7,7,0,0,1,7-7H427a7,7,0,0,1,7,7V480A7,7,0,0,1,427,487ZM67,473H420V441.14H67Z" transform="translate(-53 -50.07)"/><circle class="cls-1" cx="203.77" cy="89.34" r="42.59"/><path d="M256.77,189a49.64,49.64,0,0,1-49.59-49.59,7,7,0,0,1,14,0,35.59,35.59,0,1,0,35.59-35.59,35.27,35.27,0,0,0-21.3,7.08,7,7,0,0,1-8.39-11.21,49.14,49.14,0,0,1,29.69-9.87,49.59,49.59,0,1,1,0,99.18Z" transform="translate(-53 -50.07)"/><path d="M257.87,102.86a7.26,7.26,0,0,1-1.31-.12A7,7,0,0,1,251,94.58c.18-1,3.87-23-15-31.08a7,7,0,0,1,5.53-12.86C265,60.7,267,85.47,264.74,97.16A7,7,0,0,1,257.87,102.86Z" transform="translate(-53 -50.07)"/><path d="M319.87,293.14h-.79a41.24,41.24,0,0,1-40.25-41v-5.46A39.68,39.68,0,0,0,239.2,207c-17.84,0-36.07,14.86-39.82,32.46a39.91,39.91,0,0,1-10,19.06,38.7,38.7,0,0,1-66.77-26.7V210.45a3.48,3.48,0,0,0-3.48-3.45A26.32,26.32,0,0,1,101,199.71a25.2,25.2,0,0,1-7.89-17.48,7,7,0,0,1,7-7.23H389.32a7,7,0,0,1,7,7.23A25.65,25.65,0,0,1,370.69,207h-7.1a2.66,2.66,0,0,0-2.65,2.66v41.76a42.3,42.3,0,0,1-12.63,30A40.43,40.43,0,0,1,319.87,293.14ZM239.19,193a53.7,53.7,0,0,1,53.64,53.63v5.46a27.18,27.18,0,0,0,26.52,27,26.47,26.47,0,0,0,19.15-7.73,28.17,28.17,0,0,0,8.44-20V209.66A16.67,16.67,0,0,1,363.59,193h7.1a11.57,11.57,0,0,0,8.23-3.41c.19-.19.37-.39.54-.59H110.06c.19.2.37.39.57.58a12.32,12.32,0,0,0,8.52,3.42,17.5,17.5,0,0,1,17.47,17.45v21.37a24.8,24.8,0,0,0,25.52,24.81,24.27,24.27,0,0,0,17.06-7.72,25.86,25.86,0,0,0,6.49-12.37C190.8,212.53,214.8,193,239.19,193Z" transform="translate(-53 -50.07)"/></svg>