<svg xmlns="http://www.w3.org/2000/svg" id="Layer_1" data-name="Layer 1" viewBox="0 0 456.93 509"><defs><style>.cls-1{fill:none;}</style></defs><path class="cls-1" d="M464.81,266.66H137.38v94.86a137,137,0,0,0,137,137h12.21A137,137,0,0,0,422,382.61h42.79A42.21,42.21,0,0,0,507,340.4V308.87A42.21,42.21,0,0,0,464.81,266.66Zm17.95,70.78a20,20,0,0,1-20,20H423.63V291.07h39.16a20,20,0,0,1,20,20Z" transform="translate(-57.07 -35.14)"/><path class="cls-1" d="M387,316.75v50.17a102,102,0,0,1-102,102H276a102,102,0,0,1-102-102v-70.6s22.51,0,45.33,17.1c21.45,16.07,39.74,5,53.76.18a80.21,80.21,0,0,0,13.28-5.94c8.84-5,35.7-16.68,70.86,1.48C357.22,309.14,374,318.41,387,316.75Z" transform="translate(-57.07 -35.14)"/><path d="M285,475.89H276a109.1,109.1,0,0,1-109-109v-70.6a7,7,0,0,1,7-7c1,0,25.12.21,49.53,18.5,15.37,11.51,28.38,6.44,41,1.53l2.48-1a7,7,0,0,1,5,13.07l-2.41.93c-13.08,5.1-32.85,12.81-54.45-3.37A80.63,80.63,0,0,0,181,304.12v62.8a95.08,95.08,0,0,0,95,95H285a95.09,95.09,0,0,0,95-95V323.77c-12.31-1.14-24.18-7.41-26.09-8.45-13.87-7.15-27.76-10.06-41.29-8.65a7,7,0,0,1-1.45-13.92c16.31-1.7,32.88,1.72,49.24,10.17l.17.09c4.13,2.27,16.79,7.92,25.53,6.79a7,7,0,0,1,7.89,6.95v50.17A109.1,109.1,0,0,1,285,475.89Z" transform="translate(-57.07 -35.14)"/><path d="M286.61,505.55H274.4c-79.42,0-144-64.61-144-144v-49a7,7,0,0,1,14,0v49c0,71.7,58.32,130,130,130h12.21c63.57,0,118.81-47.3,128.49-110A7,7,0,0,1,422,375.6H464.8A35.24,35.24,0,0,0,500,340.4V308.87a35.24,35.24,0,0,0-35.2-35.21H144.38v7.07a7,7,0,0,1-14,0V266.66a7,7,0,0,1,7-7H464.8A49.26,49.26,0,0,1,514,308.87V340.4a49.25,49.25,0,0,1-49.2,49.2H427.9a144.08,144.08,0,0,1-141.29,116ZM462.79,364.41H423.63a7,7,0,0,1-7-7V291.07a7,7,0,0,1,7-7h39.16a27,27,0,0,1,27,27v26.4A27,27,0,0,1,462.79,364.41Zm-32.16-14h32.16a13,13,0,0,0,13-13V311a13,13,0,0,0-13-13H430.63Z" transform="translate(-57.07 -35.14)"/><path class="cls-1" d="M7,461.35H449.93a0,0,0,0,1,0,0v1.25A39.41,39.41,0,0,1,410.52,502H46.41A39.41,39.41,0,0,1,7,462.6v-1.25a0,0,0,0,1,0,0Z"/><path d="M467.59,544.15a7,7,0,0,1,0-14,32.47,32.47,0,0,0,31.9-26.66H71.58a32.47,32.47,0,0,0,31.9,26.66H423.63a7,7,0,0,1,0,14H103.48a46.46,46.46,0,0,1-46.41-46.41v-1.25a7,7,0,0,1,7-7H507a7,7,0,0,1,7,7v1.25A46.46,46.46,0,0,1,467.59,544.15Z" transform="translate(-57.07 -35.14)"/><path d="M198.66,244.58a7,7,0,0,1-7-7c0-19.55,11.62-29.32,21.88-37.94,9.44-7.92,16.9-14.19,16.9-27.21s-7.46-19.29-16.9-27.21c-10.26-8.62-21.88-18.39-21.88-37.94S203.28,78,213.54,69.35c9.44-7.92,16.9-14.18,16.9-27.21a7,7,0,1,1,14,0c0,19.55-11.63,29.32-21.89,37.93-9.44,7.93-16.89,14.19-16.89,27.21s7.45,19.29,16.89,27.22c10.26,8.61,21.89,18.38,21.89,37.93s-11.63,29.32-21.89,37.93c-9.44,7.93-16.89,14.19-16.89,27.22A7,7,0,0,1,198.66,244.58Z" transform="translate(-57.07 -35.14)"/><path d="M260.83,244.58a7,7,0,0,1-7-7c0-19.55,11.63-29.32,21.89-37.94,9.43-7.92,16.89-14.19,16.89-27.21s-7.46-19.29-16.89-27.21c-10.26-8.62-21.89-18.39-21.89-37.94S265.46,78,275.72,69.35c9.43-7.92,16.89-14.18,16.89-27.21a7,7,0,1,1,14,0c0,19.55-11.63,29.32-21.89,37.93-9.44,7.93-16.89,14.19-16.89,27.21s7.45,19.29,16.89,27.22c10.26,8.61,21.89,18.38,21.89,37.93S295,201.75,284.72,210.36c-9.44,7.93-16.89,14.19-16.89,27.22A7,7,0,0,1,260.83,244.58Z" transform="translate(-57.07 -35.14)"/><path d="M328.55,244.58a7,7,0,0,1-7-7c0-19.55,11.63-29.32,21.89-37.94,9.44-7.92,16.89-14.19,16.89-27.21s-7.45-19.29-16.89-27.21c-10.26-8.62-21.89-18.39-21.89-37.94S333.18,78,343.44,69.35c9.44-7.92,16.89-14.18,16.89-27.21a7,7,0,1,1,14,0c0,19.55-11.63,29.32-21.89,37.93C343,88,335.55,94.26,335.55,107.28s7.46,19.29,16.89,27.22c10.26,8.61,21.89,18.38,21.89,37.93s-11.63,29.32-21.89,37.93c-9.43,7.93-16.89,14.19-16.89,27.22A7,7,0,0,1,328.55,244.58Z" transform="translate(-57.07 -35.14)"/><path d="M342,416.15H284.67a7,7,0,0,1-7-7V369.9a7,7,0,0,1,1.68-4.55l26.51-31a7,7,0,0,1,10.29-.38L347,365a7,7,0,0,1,2,4.93v39.25A7,7,0,0,1,342,416.15Zm-50.33-14H335V372.79l-23.43-23.58-19.9,23.28Z" transform="translate(-57.07 -35.14)"/><path d="M312.22,348.06a7,7,0,0,1-7-7v-74.4a7,7,0,0,1,14,0v74.4A7,7,0,0,1,312.22,348.06Z" transform="translate(-57.07 -35.14)"/></svg>