<svg xmlns="http://www.w3.org/2000/svg" id="Layer_1" data-name="Layer 1" viewBox="0 0 216.27 459.9"><defs><style>.cls-1{fill:none;}</style></defs><path class="cls-1" d="M343.71,507.57H221.89c-28.46-101.3-44.68-210.21-39.53-325.93H382.93C387.43,298,372.17,413,343.71,507.57Z" transform="translate(-174.43 -54.67)"/><path class="cls-1" d="M383.67,231.14c-.84,99.15-15.54,195.33-40,276.43H221.89c-24.37-86.73-39.76-179-40.45-276.43Z" transform="translate(-174.43 -54.67)"/><path d="M328.29,335a6.76,6.76,0,0,1-6.76-6.76V137.93a6.76,6.76,0,0,1,1.26-3.93l47-65.81h-11l-51,71.46V326.29a6.76,6.76,0,0,1-13.52,0V140a6.78,6.78,0,0,1,.94-6l54.65-76.5a6.75,6.75,0,0,1,5.5-2.83h27.64a6.76,6.76,0,0,1,5.5,10.69L335.05,140.1V328.22A6.76,6.76,0,0,1,328.29,335Z" transform="translate(-174.43 -54.67)"/><path d="M261.27,314.32H226.55a13.28,13.28,0,0,1-13.26-13.27V266.34a13.28,13.28,0,0,1,13.26-13.27h34.72a13.29,13.29,0,0,1,13.27,13.27v34.71A13.29,13.29,0,0,1,261.27,314.32Zm-34-14h33.25V267.07H227.29Z" transform="translate(-174.43 -54.67)"/><path d="M229.61,347.61A23.39,23.39,0,1,1,253,324.22,23.42,23.42,0,0,1,229.61,347.61Zm0-32.78a9.39,9.39,0,1,0,9.39,9.39A9.41,9.41,0,0,0,229.61,314.83Z" transform="translate(-174.43 -54.67)"/><path d="M243.91,405.91a23.4,23.4,0,1,1,23.39-23.39A23.42,23.42,0,0,1,243.91,405.91Zm0-32.79a9.4,9.4,0,1,0,9.39,9.4A9.41,9.41,0,0,0,243.91,373.12Z" transform="translate(-174.43 -54.67)"/><path d="M303.16,473a23.26,23.26,0,0,1-13.51-4.3,7,7,0,1,1,8.09-11.42,9.4,9.4,0,1,0,0-15.37,7,7,0,0,1-8-11.46A23.4,23.4,0,1,1,303.16,473Z" transform="translate(-174.43 -54.67)"/><path d="M342.38,389.52a23.27,23.27,0,0,1-13.52-4.3A7,7,0,0,1,337,373.8a9.4,9.4,0,1,0,0-15.37A7,7,0,1,1,328.94,347a23.4,23.4,0,1,1,13.44,42.55Z" transform="translate(-174.43 -54.67)"/><path d="M284.89,482.11H250.18a13.28,13.28,0,0,1-13.27-13.27V434.13a13.28,13.28,0,0,1,13.27-13.27h34.71a13.28,13.28,0,0,1,13.27,13.27v34.71A13.28,13.28,0,0,1,284.89,482.11Zm-34-14h33.25V434.86H250.91Z" transform="translate(-174.43 -54.67)"/><path d="M328.29,434.62H301a6.76,6.76,0,0,1-6.76-6.76V377.07a6.76,6.76,0,0,1,13.52,0v44h13.81V375.47a6.76,6.76,0,1,1,13.52,0v52.39A6.76,6.76,0,0,1,328.29,434.62Z" transform="translate(-174.43 -54.67)"/><path d="M324,382.47H289.27A13.29,13.29,0,0,1,276,369.2V334.48a13.28,13.28,0,0,1,13.27-13.26H324a13.28,13.28,0,0,1,13.27,13.26V369.2A13.29,13.29,0,0,1,324,382.47Zm-34-14h33.25V335.22H290Z" transform="translate(-174.43 -54.67)"/><path d="M271.43,243.87c-22.09,0-42.91-9.74-58.62-27.44-15.52-17.48-24.07-40.52-24.09-64.89,0-50.84,36.95-92.31,82.45-92.45h0a7,7,0,0,1,7,7l0,12.06a7,7,0,0,1-7,7h0a7,7,0,0,1-7-7V73.51c-34.52,4.13-61.53,37.58-61.5,78,0,20.94,7.32,40.69,20.56,55.61,11.33,12.76,25.75,20.53,41.2,22.33l-.06-78-.05-19.33a7,7,0,0,1,7-7h0a7,7,0,0,1,7,7l.05,19.34.06,85.41a7,7,0,0,1-7,7Z" transform="translate(-174.43 -54.67)"/><path d="M271.42,158.48a7,7,0,0,1-5.47-2.63L220.74,99.2a7,7,0,1,1,10.95-8.73l45.2,56.64a7,7,0,0,1-5.47,11.37Z" transform="translate(-174.43 -54.67)"/><path d="M202.47,158.53a7,7,0,1,1,0-14l68.94-.05h0a7,7,0,1,1,0,14l-68.94.05Z" transform="translate(-174.43 -54.67)"/><path d="M243.91,188.64a7,7,0,0,1-5.17-11.71l27.51-30.17a7,7,0,0,1,10.34,9.44l-27.51,30.16A7,7,0,0,1,243.91,188.64Z" transform="translate(-174.43 -54.67)"/><path d="M341.79,238.14H181.44a7,7,0,0,1,0-14H341.79a7,7,0,1,1,0,14Z" transform="translate(-174.43 -54.67)"/><path d="M343.71,514.57H221.89a7,7,0,0,1-6.74-5.1C184,398.6,170.61,288.2,175.36,181.33a7,7,0,0,1,7-6.69H382.93a7,7,0,0,1,7,6.73c4.36,112.56-9.67,229.12-39.5,328.22A7,7,0,0,1,343.71,514.57Zm-116.5-14H338.49c27.8-94.58,41.11-204.86,37.68-311.93H189.08C185.29,290.3,198.11,395.17,227.21,500.57Z" transform="translate(-174.43 -54.67)"/></svg>