<svg xmlns="http://www.w3.org/2000/svg" viewBox="0 0 84.64 48.55"><defs><style>.cls-1,.cls-2,.cls-3{fill:none;stroke:#000;stroke-width:2.5px;}.cls-1,.cls-2{stroke-miterlimit:10;}.cls-2,.cls-3{stroke-linecap:round;}.cls-3{stroke-linejoin:round;}</style></defs><g id="Layer_2" data-name="Layer 2"><g id="Layer_1-2" data-name="Layer 1"><path class="cls-1" d="M13.61,15.06a5.5,5.5,0,1,1,7.2-6.65"/><path class="cls-1" d="M77.89,40.55,6.83,40.47a2.87,2.87,0,0,1-2.56-1.58L1.39,33.21a1.24,1.24,0,0,1,1.1-1.81H82.15a1.24,1.24,0,0,1,1.11,1.79l-2.78,5.74A2.88,2.88,0,0,1,77.89,40.55Z"/><path class="cls-1" d="M19.59,12.15A13.71,13.71,0,0,1,32.73,1.25,13.29,13.29,0,0,1,43.11,6.37"/><path class="cls-1" d="M24.6,11.27a9.05,9.05,0,0,1,8.13-5.36A8.87,8.87,0,0,1,39.5,9.12"/><path class="cls-1" d="M29.72,11.85a4.41,4.41,0,0,1,3-1.22,4.49,4.49,0,0,1,3.72,2"/><path class="cls-2" d="M35.78,14.42A19,19,0,0,1,52.42,4.18a18.23,18.23,0,0,1,5.5.85"/><path class="cls-1" d="M40.45,19.5a12.87,12.87,0,0,1,12-8.74,12.71,12.71,0,0,1,11,6.66"/><path class="cls-1" d="M47.33,20.1a6.2,6.2,0,0,1,10.49.48"/><path class="cls-2" d="M66.56,10.76a20.25,20.25,0,0,1,3.8,6.62"/><path class="cls-1" d="M55.1,24.51A13.5,13.5,0,0,1,67,17.11c7.41,0,13.5,6.36,13.5,14.09h-27"/><path class="cls-1" d="M67,31.2h-9A9,9,0,1,1,76,31.2Z"/><path class="cls-1" d="M67,31.2H62.45a4.51,4.51,0,1,1,9,0Z"/><path class="cls-3" d="M57.93,47.3H14a1.67,1.67,0,0,1-1.67-1.67V40.55H72.6v5.08a1.67,1.67,0,0,1-1.67,1.67H68.85"/><path class="cls-2" d="M10,19.22a18.82,18.82,0,0,1,15.06-7.77c10.46,0,19.06,9,19.06,19.9H6a20.38,20.38,0,0,1,.41-4.08"/><path class="cls-1" d="M25.05,31.35H12.3C12.3,24,18.06,18,25.05,18s12.75,6,12.75,13.31Z"/><path class="cls-1" d="M25.05,31.35H18.68a6.55,6.55,0,0,1,6.37-6.65,6.55,6.55,0,0,1,6.37,6.65Z"/><circle class="cls-1" cx="49.42" cy="25.01" r="5.5"/></g></g></svg>