<svg xmlns="http://www.w3.org/2000/svg" viewBox="0 0 73.29 84.61"><g id="Layer_2" data-name="Layer 2"><g id="Layer_1-2" data-name="Layer 1"><path d="M25.33,12.6a1.42,1.42,0,1,1-1.41-1.41,1.42,1.42,0,0,1,1.41,1.41Z"/><path d="M32.4,8.36A1.41,1.41,0,1,1,31,7,1.42,1.42,0,0,1,32.4,8.36Z"/><path d="M46.55,8.36a1.42,1.42,0,1,1-2.83,0,1.42,1.42,0,0,1,2.83,0Z"/><path d="M39.48,12.6a1.42,1.42,0,1,1-2.83,0,1.42,1.42,0,0,1,2.83,0Z"/><path d="M53.62,12.6a1.42,1.42,0,1,1-2.83,0,1.42,1.42,0,0,1,2.83,0Z"/><path d="M72.92,44.22l-4-4a6.92,6.92,0,0,0-4-2l-.11,0V35.11h1.54a1.29,1.29,0,0,0,1.29-1.29V29.45h1.54a1.28,1.28,0,0,0,1.28-1.29V21.09A21.14,21.14,0,0,0,49.38,0H26.75A21.14,21.14,0,0,0,5.66,21.09v7.07A1.29,1.29,0,0,0,7,29.45H8.49v4.37a1.29,1.29,0,0,0,1.29,1.29h1.53v3.08h-2a6.94,6.94,0,0,0-4.89,2l-4,4a1.27,1.27,0,0,0-.31,1.32,7.28,7.28,0,0,0,1.72,2.62,8.93,8.93,0,0,0,6.57,2.5h.13V52.2a4.1,4.1,0,0,0,1,2.75l.07.08-.07.09a4.08,4.08,0,0,0-1,2.74v7.2H7a1.29,1.29,0,0,0-1.29,1.29V72a12.64,12.64,0,0,0,12.6,12.61h39.6A12.63,12.63,0,0,0,70.46,72V66.35a1.28,1.28,0,0,0-1.28-1.29H67.64v-7.2a4.13,4.13,0,0,0-1-2.74L66.51,55l.08-.09a4.09,4.09,0,0,0,1-2.75V50.34l.09,0a8.37,8.37,0,0,0,3.77-2.14,7.44,7.44,0,0,0,1.73-2.63A1.31,1.31,0,0,0,72.92,44.22ZM65.06,32.53H32.28V29.45H65.06Zm-2.83,2.58v3.08H43.59V35.11ZM41,35.11v3.08H13.89V35.11ZM8.24,26.87V21.09A18.55,18.55,0,0,1,26.75,2.58H49.38A18.56,18.56,0,0,1,67.89,21.09v5.78Zm2.82,5.66V29.45H29.7v3.08ZM67.89,67.64V72a10.06,10.06,0,0,1-10,10H18.26a10,10,0,0,1-10-10V67.64H22.45L24.33,70a1.28,1.28,0,0,0,1.5.39l6.57-2.73ZM59.56,56.32h4a1.54,1.54,0,0,1,1.54,1.54v7.2H38.57ZM25.73,67.61l-.06-.07-9-11.22H52.83ZM64.61,53.29a1.54,1.54,0,0,1-1.09.45H12.6a1.55,1.55,0,0,1-1.54-1.54V50.34l.1,0a8.37,8.37,0,0,0,3.77-2.14c.15-.15.28-.3.41-.44l.09-.11.1.11c.12.13.25.28.41.44a8.94,8.94,0,0,0,6.56,2.49,9,9,0,0,0,6.57-2.49c.15-.15.29-.3.41-.44l.1-.12.09.12c.12.14.25.28.41.44a9,9,0,0,0,6.57,2.49,9,9,0,0,0,6.57-2.49l.4-.44.1-.11.09.11.41.44a9,9,0,0,0,6.57,2.49,9,9,0,0,0,6.57-2.49c.15-.15.28-.3.41-.44l.09-.12.1.12.4.44a9,9,0,0,0,6.57,2.49h.13V52.2A1.52,1.52,0,0,1,64.61,53.29Zm-52,3h.8l7,8.74H11.06v-7.2A1.55,1.55,0,0,1,12.6,56.32ZM70.39,45.48a6.15,6.15,0,0,1-5.46,2.61c-4.6,0-5.8-3.23-5.84-3.36a1.3,1.3,0,0,0-1.22-.89h0a1.29,1.29,0,0,0-1.22.87c0,.14-1.25,3.38-5.85,3.38s-5.8-3.23-5.85-3.36a1.28,1.28,0,0,0-1.21-.89h0a1.29,1.29,0,0,0-1.22.87c0,.14-1.25,3.38-5.85,3.38s-5.8-3.23-5.85-3.36a1.29,1.29,0,0,0-2.45,0s-1.2,3.37-5.85,3.37-5.79-3.23-5.84-3.36a1.29,1.29,0,0,0-2.45,0s-1.16,3.37-5.85,3.37a6.12,6.12,0,0,1-5.45-2.61l-.06-.09L6.2,42a4.39,4.39,0,0,1,3.08-1.28H64A4.38,4.38,0,0,1,67.09,42l3.35,3.35Z"/></g></g></svg>